<svg width="1440" height="438" viewBox="0 0 1440 438" fill="none" xmlns="http://www.w3.org/2000/svg">
<path d="M-130 162.552C-77.0275 139.191 48.1638 105.435 140.684 133.351C273.406 173.398 452.864 389.31 614.526 422.862C934.107 489.19 1132.93 307.159 1296.77 187.582C1454.52 72.4463 1521.85 78.9816 1543 82.4579" stroke="white" stroke-opacity="0.4"/>
<path d="M-130 127.552C-77.0275 104.191 48.1638 70.4345 140.684 98.3511C273.406 138.398 452.864 354.31 614.526 387.862C934.107 454.19 1132.93 272.159 1296.77 152.582C1454.52 37.4463 1521.85 43.9816 1543 47.4579" stroke="white" stroke-opacity="0.4"/>
<path d="M-130 82.5521C-77.0275 59.1913 48.1638 25.4345 140.684 53.3511C273.406 93.3982 452.864 309.31 614.526 342.862C934.107 409.19 1132.93 227.159 1296.77 107.582C1454.52 -7.55372 1521.85 -1.01837 1543 2.45794" stroke="white" stroke-opacity="0.4"/>
</svg>
