<svg width="1240" height="252" viewBox="0 0 1240 252" fill="none" xmlns="http://www.w3.org/2000/svg">
<g clip-path="url(#clip0_247_880)">
<path d="M-248 -22.4479C-195.027 -45.8087 -69.8362 -79.5655 22.6837 -51.6489C155.406 -11.6018 334.864 204.31 496.526 237.862C816.107 304.19 1014.93 122.159 1178.77 2.58158C1336.52 -112.554 1403.85 -106.018 1425 -102.542" stroke="white" stroke-opacity="0.4"/>
<path d="M-248 -57.4479C-195.027 -80.8087 -69.8362 -114.565 22.6837 -86.6489C155.406 -46.6018 334.864 169.31 496.526 202.862C816.107 269.19 1014.93 87.1589 1178.77 -32.4184C1336.52 -147.554 1403.85 -141.018 1425 -137.542" stroke="white" stroke-opacity="0.4"/>
<path d="M-248 -102.448C-195.027 -125.809 -69.8362 -159.565 22.6837 -131.649C155.406 -91.6018 334.864 124.31 496.526 157.862C816.107 224.19 1014.93 42.1589 1178.77 -77.4184C1336.52 -192.554 1403.85 -186.018 1425 -182.542" stroke="white" stroke-opacity="0.4"/>
</g>
<defs>
<clipPath id="clip0_247_880">
<rect width="1240" height="252" fill="white"/>
</clipPath>
</defs>
</svg>
