<svg width="552" height="319" viewBox="0 0 552 319" fill="none" xmlns="http://www.w3.org/2000/svg">
<rect y="0.499967" width="105.142" height="105.142" transform="matrix(0.866044 0.499967 -0.866044 0.499967 276.205 0.250244)" stroke="#C0C0C0"/>
<rect y="0.499967" width="105.142" height="105.142" transform="matrix(0.866044 0.499967 -0.866044 0.499967 368.129 53.3186)" stroke="#C0C0C0"/>
<rect y="0.499967" width="105.142" height="105.142" transform="matrix(0.866044 0.499967 -0.866044 0.499967 460.053 106.385)" stroke="#C0C0C0"/>
<rect y="0.499967" width="105.142" height="105.142" transform="matrix(0.866044 0.499967 -0.866044 0.499967 184.281 53.3186)" stroke="#C0C0C0"/>
<rect y="0.499967" width="105.142" height="105.142" transform="matrix(0.866044 0.499967 -0.866044 0.499967 276.205 106.387)" stroke="#C0C0C0"/>
<rect y="0.499967" width="105.142" height="105.142" transform="matrix(0.866044 0.499967 -0.866044 0.499967 368.129 159.453)" stroke="#C0C0C0"/>
<rect y="0.499967" width="105.142" height="105.142" transform="matrix(0.866044 0.499967 -0.866044 0.499967 92.3573 106.387)" stroke="#C0C0C0"/>
<rect y="0.499967" width="105.142" height="105.142" transform="matrix(0.866044 0.499967 -0.866044 0.499967 184.281 159.455)" stroke="#C0C0C0"/>
<rect y="0.499967" width="105.142" height="105.142" transform="matrix(0.866044 0.499967 -0.866044 0.499967 276.205 212.522)" stroke="#C0C0C0"/>
</svg>
