<svg width="84" height="84" viewBox="0 0 84 84" fill="none" xmlns="http://www.w3.org/2000/svg">
<circle cx="42" cy="42" r="41.5" stroke="black" stroke-dasharray="4 4"/>
<circle cx="41" cy="42" r="31" fill="#F5F5F5"/>
<path d="M30.6297 22.0008C30.4893 22.0161 30.3591 22.0876 30.2644 22.2015C30.1698 22.3153 30.1175 22.4633 30.1176 22.6168V25.0913C30.1182 25.2553 30.1787 25.4123 30.2858 25.5278C30.3928 25.6434 30.5377 25.7078 30.6886 25.7072H33.5311V27.0598C32.8728 27.319 32.3925 28.0023 32.3925 28.8014C32.3925 29.8186 33.1665 30.6552 34.1021 30.6552C35.0376 30.6552 35.806 29.8186 35.806 28.8014C35.806 28.0009 35.3274 27.3168 34.6686 27.0587V25.7072H37.51C37.6608 25.7078 37.8057 25.6434 37.9128 25.5278C38.0199 25.4123 38.0804 25.2553 38.081 25.0913V22.6168C38.0804 22.4528 38.0199 22.2958 37.9128 22.1803C37.8057 22.0648 37.6608 22.0002 37.51 22.0008H30.6886C30.6689 21.9997 30.6493 21.9997 30.6297 22.0008ZM28.979 28.1806C28.8292 28.1819 28.6859 28.2474 28.5803 28.3629L25.1679 32.0741C25.0616 32.189 25.0013 32.3448 25.0001 32.5077V35.603C24.9985 35.6853 25.012 35.7672 25.0398 35.8437C25.0677 35.9203 25.1093 35.9901 25.1623 36.0489C25.2153 36.1078 25.2785 36.1546 25.3483 36.1865C25.4182 36.2184 25.4931 36.2348 25.5689 36.2348C25.6446 36.2348 25.7196 36.2184 25.7894 36.1865C25.8592 36.1546 25.9225 36.1078 25.9754 36.0489C26.0284 35.9901 26.07 35.9203 26.0979 35.8437C26.1257 35.7672 26.1392 35.6853 26.1376 35.603V32.7686L29.219 29.4172H31.3139C31.2763 29.2184 31.2562 29.0138 31.2562 28.8037C31.2562 28.5905 31.2775 28.3822 31.3162 28.1805L28.979 28.1806ZM36.8835 28.1806C36.9221 28.3823 36.9424 28.5906 36.9424 28.8037C36.9424 29.0138 36.9232 29.2185 36.8857 29.4173H38.984L42.0621 32.7687V35.6031C42.0604 35.6854 42.0739 35.7672 42.1018 35.8438C42.1296 35.9204 42.1713 35.9901 42.2242 36.049C42.2772 36.1078 42.3405 36.1546 42.4103 36.1866C42.4801 36.2185 42.5551 36.2349 42.6308 36.2349C42.7065 36.2349 42.7815 36.2185 42.8513 36.1866C42.9212 36.1546 42.9844 36.1078 43.0374 36.049C43.0903 35.9901 43.132 35.9204 43.1598 35.8438C43.1877 35.7672 43.2012 35.6854 43.1995 35.6031V32.5078C43.1983 32.3449 43.1381 32.1891 43.0318 32.0742L39.6228 28.363C39.5699 28.3052 39.5071 28.2593 39.4379 28.228C39.3687 28.1968 39.2945 28.1807 39.2195 28.1807L36.8835 28.1806ZM28.979 31.8919C28.0436 31.8919 27.2751 32.7274 27.2751 33.7444V44.8782C27.2751 45.8952 28.0436 46.7308 28.979 46.7308H39.2195C40.1549 46.7308 40.9235 45.8952 40.9235 44.8782V33.7444C40.9235 32.7274 40.1549 31.8919 39.2195 31.8919H36.3725V36.8398C36.3686 37.3298 35.8681 37.6201 35.4917 37.3506L34.1021 36.347L32.708 37.3506C32.3316 37.6201 31.8303 37.3296 31.826 36.8398V31.8919H28.979ZM32.9635 31.8919V35.6804L33.7821 35.0874C33.9739 34.9475 34.2247 34.9475 34.4164 35.0874L35.2395 35.6853V31.8919H32.9635ZM44.9035 36.8398C43.9681 36.8398 43.1995 37.6754 43.1995 38.6924V49.2054H55.1429C55.7408 49.2054 56.3131 49.3248 56.848 49.5326V38.6924C56.848 37.6754 56.0783 36.8398 55.1429 36.8398H52.3015V41.7829C52.3032 42.2788 51.7937 42.575 51.415 42.2986L50.0254 41.2901L48.6314 42.2986C48.2534 42.5692 47.751 42.275 47.7505 41.7829V36.8398H44.9035ZM48.888 36.8398V40.6331L49.7111 40.0353C49.9018 39.8974 50.15 39.8974 50.3409 40.0353L51.164 40.6331V36.8398H48.888ZM30.0943 43.0195C30.102 43.0193 30.1098 43.0193 30.1176 43.0195H32.3925C32.5435 43.0195 32.6883 43.0847 32.7951 43.2008C32.9018 43.3169 32.9618 43.4743 32.9618 43.6385C32.9618 43.8027 32.9018 43.96 32.7951 44.0761C32.6883 44.1922 32.5435 44.2574 32.3925 44.2574H30.1176C29.9666 44.2607 29.8206 44.1988 29.7117 44.0851C29.6028 43.9714 29.5398 43.8153 29.5367 43.6512C29.5337 43.4871 29.5907 43.3283 29.6952 43.2099C29.7998 43.0914 29.9433 43.0229 30.0943 43.0195ZM46.041 46.7308H48.317C49.0761 46.7308 49.0761 47.9687 48.317 47.9687H46.041C45.2819 47.9687 45.2819 46.7308 46.041 46.7308ZM28.979 50.4421C26.7833 50.4421 25.0001 52.382 25.0001 54.7692C25.0001 57.1564 26.7833 59.1012 28.979 59.1012H55.1429C57.3386 59.1012 59.124 57.1564 59.124 54.7692C59.124 52.382 57.3386 50.4421 55.1429 50.4421H28.979ZM30.6886 52.9166C31.6241 52.9166 32.3925 53.752 32.3925 54.7692C32.3925 55.7864 31.6241 56.6267 30.6886 56.6267C29.753 56.6267 28.979 55.7864 28.979 54.7692C28.979 53.752 29.753 52.9166 30.6886 52.9166ZM36.3725 52.9166C37.3081 52.9166 38.081 53.752 38.081 54.7692C38.081 55.7864 37.3081 56.6267 36.3725 56.6267C35.437 56.6267 34.6686 55.7864 34.6686 54.7692C34.6686 53.752 35.437 52.9166 36.3725 52.9166ZM42.0621 52.9166C42.9976 52.9166 43.7705 53.752 43.7705 54.7692C43.7705 55.7864 42.9976 56.6267 42.0621 56.6267C41.1265 56.6267 40.357 55.7864 40.357 54.7692C40.357 53.752 41.1265 52.9166 42.0621 52.9166ZM47.7505 52.9166C48.6861 52.9166 49.4545 53.752 49.4545 54.7692C49.4545 55.7864 48.6861 56.6267 47.7505 56.6267C46.8149 56.6267 46.041 55.7864 46.041 54.7692C46.041 53.752 46.8149 52.9166 47.7505 52.9166ZM53.4345 52.9166C54.37 52.9166 55.1429 53.752 55.1429 54.7692C55.1429 55.7864 54.37 56.6267 53.4345 56.6267C52.4989 56.6267 51.7305 55.7864 51.7305 54.7692C51.7305 53.752 52.4989 52.9166 53.4345 52.9166Z" fill="#EE2536"/>
</svg>
