<svg width="84" height="84" viewBox="0 0 84 84" fill="none" xmlns="http://www.w3.org/2000/svg">
<circle cx="42" cy="42" r="41.5" stroke="black" stroke-dasharray="4 4"/>
<circle cx="42" cy="42" r="31" fill="#F5F5F5"/>
<path d="M57.2488 28.7205H52.5488V23.8646L57.2488 28.7205ZM32.2998 51.6639C31.5517 50.8911 31.0423 49.9064 30.8359 48.8344C30.6295 47.7624 30.7354 46.6513 31.1402 45.6415C31.5451 44.6317 32.2306 43.7687 33.1102 43.1614C33.9897 42.5542 35.0239 42.2301 36.0817 42.2301C37.1396 42.2301 38.1737 42.5542 39.0533 43.1614C39.9328 43.7687 40.6184 44.6317 41.0232 45.6415C41.428 46.6513 41.5339 47.7624 41.3275 48.8344C41.1211 49.9064 40.6117 50.8911 39.8637 51.6639C38.8598 52.6983 37.4999 53.2793 36.0821 53.2793C34.6643 53.2793 33.3044 52.6983 32.3006 51.6639H32.2998ZM33.2023 50.731C33.7718 51.3195 34.4974 51.7203 35.2873 51.8827C36.0773 52.0451 36.8961 51.9618 37.6403 51.6434C38.3844 51.325 39.0204 50.7857 39.4679 50.0938C39.9154 49.4019 40.1543 48.5884 40.1543 47.7562C40.1543 46.924 39.9154 46.1105 39.4679 45.4186C39.0204 44.7267 38.3844 44.1874 37.6403 43.869C36.8961 43.5505 36.0773 43.4673 35.2873 43.6297C34.4974 43.7921 33.7718 44.1929 33.2023 44.7814C32.8229 45.1713 32.5219 45.6349 32.3165 46.1454C32.1111 46.656 32.0054 47.2035 32.0054 47.7564C32.0055 48.3093 32.1114 48.8567 32.3169 49.3672C32.5224 49.8777 32.8236 50.3412 33.2031 50.731H33.2023ZM29.2889 53.3304C29.2336 53.3303 29.1789 53.3414 29.1279 53.3632C29.0769 53.3849 29.0305 53.4169 28.9914 53.4573L28.1824 54.2932L29.7546 55.9175L30.5636 55.0816C30.6389 55.0036 30.6824 54.8988 30.6852 54.7887V54.76C30.6824 54.6499 30.6389 54.5451 30.5636 54.4671L29.5863 53.4573C29.5473 53.417 29.5011 53.3851 29.4502 53.3633C29.3993 53.3416 29.3447 53.3304 29.2896 53.3304H29.2889ZM28.2402 52.6811C28.5186 52.3936 28.8961 52.2322 29.2896 52.2322C29.6832 52.2322 30.0607 52.3936 30.3391 52.6811L30.4523 52.7977L30.6868 52.5555V51.3312C30.0271 50.2634 29.6766 49.023 29.6766 47.7562C29.6766 46.4894 30.0271 45.249 30.6868 44.1811V26.4537L25 27.0871L27.7254 53.2142L28.2402 52.6811ZM27.4311 55.0694L26.2783 56.2617C26.1998 56.3432 26.1557 56.4535 26.1557 56.5685C26.1557 56.6835 26.1998 56.7939 26.2783 56.8754L27.2553 57.8852C27.3342 57.9664 27.441 58.0119 27.5523 58.0119C27.6636 58.0119 27.7704 57.9664 27.8493 57.8852L29.0033 56.6929L27.4311 55.0694ZM30.6852 58.9372V56.5084L28.6006 58.6622C28.5153 58.7498 28.4199 58.8262 28.3166 58.8897L28.5511 61.1401L43.4017 59.4867H31.2174C31.1476 59.4867 31.0785 59.4725 31.014 59.4448C30.9495 59.4172 30.8909 59.3767 30.8415 59.3257C30.7922 59.2747 30.753 59.2141 30.7263 59.1474C30.6997 59.0808 30.6859 59.0093 30.686 58.9372H30.6852ZM58 29.8183V58.3881H31.7485V54.7919C31.7485 54.7801 31.7485 54.7686 31.7485 54.7568V53.01L31.9414 52.8108C32.7088 53.4829 33.6187 53.9589 34.5974 54.2001C35.576 54.4413 36.5959 54.441 37.5744 54.1991C38.5529 53.9573 39.4625 53.4807 40.2296 52.808C40.9966 52.1353 41.5995 51.2854 41.9895 50.3272H54.5654C54.7037 50.3233 54.8352 50.2637 54.9317 50.1612C55.0283 50.0587 55.0823 49.9213 55.0823 49.7783C55.0823 49.6352 55.0283 49.4978 54.9317 49.3953C54.8352 49.2928 54.7037 49.2333 54.5654 49.2294H42.3285C42.5349 48.2884 42.5414 47.3123 42.3475 46.3685H54.5654C54.7037 46.3646 54.8352 46.3051 54.9317 46.2026C55.0283 46.1 55.0823 45.9627 55.0823 45.8196C55.0823 45.6766 55.0283 45.5392 54.9317 45.4367C54.8352 45.3342 54.7037 45.2746 54.5654 45.2707H42.0247C41.5772 44.1287 40.8305 43.1382 39.8684 42.4103H54.5654C54.7037 42.4064 54.8352 42.3468 54.9317 42.2443C55.0283 42.1418 55.0823 42.0044 55.0823 41.8614C55.0823 41.7183 55.0283 41.581 54.9317 41.4784C54.8352 41.3759 54.7037 41.3164 54.5654 41.3125H37.5553C36.5373 41.0644 35.4761 41.0771 34.464 41.3497C33.4519 41.6223 32.5197 42.1463 31.7485 42.8763V23.0872H51.4851V29.2696C51.4851 29.4151 51.5411 29.5547 51.6407 29.6576C51.7403 29.7605 51.8754 29.8183 52.0162 29.8183H58ZM55.0964 37.9029C55.0965 37.8308 55.0828 37.7595 55.0561 37.6928C55.0294 37.6262 54.9903 37.5657 54.941 37.5147C54.8917 37.4637 54.8331 37.4232 54.7687 37.3956C54.7042 37.368 54.6351 37.3538 54.5654 37.3538H35.1835C35.1126 37.3518 35.0419 37.3646 34.9758 37.3912C34.9096 37.4179 34.8493 37.458 34.7984 37.5092C34.7475 37.5604 34.7071 37.6216 34.6794 37.6891C34.6518 37.7567 34.6376 37.8294 34.6376 37.9027C34.6376 37.9761 34.6518 38.0487 34.6794 38.1163C34.7071 38.1839 34.7475 38.2451 34.7984 38.2963C34.8493 38.3474 34.9096 38.3875 34.9758 38.4142C35.0419 38.4409 35.1126 38.4536 35.1835 38.4516H54.5654C54.7062 38.4516 54.8413 38.3938 54.9409 38.2909C55.0405 38.188 55.0964 38.0485 55.0964 37.9029ZM55.0964 33.9443C55.0964 33.7988 55.0405 33.6592 54.9409 33.5563C54.8413 33.4534 54.7062 33.3956 54.5654 33.3956H35.1835C35.1126 33.3936 35.0419 33.4063 34.9758 33.433C34.9096 33.4597 34.8493 33.4998 34.7984 33.551C34.7475 33.6021 34.7071 33.6633 34.6794 33.7309C34.6518 33.7985 34.6376 33.8711 34.6376 33.9445C34.6376 34.0179 34.6518 34.0905 34.6794 34.1581C34.7071 34.2257 34.7475 34.2869 34.7984 34.338C34.8493 34.3892 34.9096 34.4293 34.9758 34.456C35.0419 34.4827 35.1126 34.4954 35.1835 34.4934H54.5654C54.6351 34.4934 54.7042 34.4792 54.7687 34.4516C54.8331 34.424 54.8917 34.3835 54.941 34.3325C54.9903 34.2815 55.0294 34.221 55.0561 34.1544C55.0828 34.0878 55.0965 34.0164 55.0964 33.9443ZM37.7743 50.3272H35.1835C35.1126 50.3292 35.0419 50.3164 34.9758 50.2898C34.9096 50.2631 34.8493 50.223 34.7984 50.1718C34.7475 50.1206 34.7071 50.0594 34.6794 49.9919C34.6518 49.9243 34.6376 49.8516 34.6376 49.7783C34.6376 49.7049 34.6518 49.6323 34.6794 49.5647C34.7071 49.4971 34.7475 49.4359 34.7984 49.3847C34.8493 49.3336 34.9096 49.2935 34.9758 49.2668C35.0419 49.2401 35.1126 49.2274 35.1835 49.2294H38.7322C38.9595 48.7905 39.0819 48.3019 39.0893 47.8043C39.0967 47.3066 38.9888 46.8143 38.7746 46.3685H35.1835C35.1126 46.3705 35.0419 46.3578 34.9758 46.3311C34.9096 46.3044 34.8493 46.2643 34.7984 46.2132C34.7475 46.162 34.7071 46.1008 34.6794 46.0332C34.6518 45.9656 34.6376 45.893 34.6376 45.8196C34.6376 45.7462 34.6518 45.6736 34.6794 45.606C34.7071 45.5384 34.7475 45.4773 34.7984 45.4261C34.8493 45.3749 34.9096 45.3348 34.9758 45.3081C35.0419 45.2814 35.1126 45.2687 35.1835 45.2707H37.8907C37.4486 44.9272 36.9234 44.7161 36.3728 44.6609C35.8222 44.6056 35.2674 44.7081 34.7696 44.9573C34.2717 45.2065 33.8499 45.5926 33.5506 46.0733C33.2512 46.5539 33.0859 47.1105 33.0728 47.6819C33.0596 48.2534 33.1991 48.8175 33.476 49.3123C33.7529 49.8071 34.1564 50.2135 34.6423 50.4869C35.1281 50.7602 35.6775 50.8899 36.23 50.8618C36.7825 50.8336 37.3169 50.6486 37.7743 50.3272Z" fill="#EE2536"/>
</svg>
