<svg width="76" height="76" viewBox="0 0 76 76" fill="none" xmlns="http://www.w3.org/2000/svg">
<circle cx="38" cy="38" r="31" fill="#F5F5F5"/>
<circle cx="38" cy="38" r="37.5" stroke="black" stroke-dasharray="2 2"/>
<path d="M58.4286 28.5714H45.8571V23.8571H60V27C60 27.8679 59.2965 28.5714 58.4286 28.5714Z" fill="#FF3833"/>
<path d="M60 22.2858H45.8571V17.5715H58.4286C59.2965 17.5715 60 18.275 60 19.1429V22.2858Z" fill="#FF3833"/>
<path d="M40.2881 51.8167L41.3915 50.7831L44.3839 47.7899L45.897 43.2513C45.9354 43.1355 46.0014 43.0303 46.0873 42.9444L48.8297 40.2021L47.6281 37.7997L45.8571 36.9142V38.7856C45.8571 40.0854 44.7998 41.1428 43.5 41.1428C42.2002 41.1428 41.1429 40.0854 41.1429 38.7856V35.3428L39.2507 36.2889L38 37.5396V41.6032L40.9127 44.5158C41.1076 44.7107 41.1858 44.9939 41.1198 45.2616L39.6512 51.1338L40.2881 51.8167Z" fill="#FF3833"/>
<path d="M30.1191 29.1668L31.1756 33.3916L33.3686 29.0057C33.4445 28.8538 33.5681 28.7302 33.72 28.6543L36.2536 27.3875L34.9561 23.4957L33.7997 22.3393C31.3837 22.4742 29.0909 23.059 27 24.0227V27.3L29.7086 28.6543C29.9134 28.7571 30.0638 28.9443 30.1191 29.1668Z" fill="#FF3833"/>
<path d="M25.2537 39.184L22.7201 37.9172C22.5682 37.8412 22.4446 37.7177 22.3687 37.5658L21.2845 35.3981L18.9128 37.7699C18.8268 37.8558 18.7217 37.921 18.6058 37.9594L16.1655 38.7729C16.0673 39.551 16 40.3385 16 41.1429C16 45.465 17.4769 49.4397 19.9315 52.6235L20.943 52.2864L22.3687 49.4343C22.4446 49.2824 22.5682 49.1589 22.7201 49.0829L25.2537 47.8161L23.8979 43.7486C23.8434 43.5875 23.8434 43.4126 23.8979 43.2514L25.2537 39.184Z" fill="#FF3833"/>
<path d="M45.8572 30.1428V35.1571L48.5657 36.5114C48.7176 36.5874 48.8404 36.7109 48.9171 36.8628L50.4886 40.0057C50.6405 40.308 50.5806 40.6733 50.3412 40.9126L47.3304 43.9243L45.8173 48.4629C45.7789 48.5787 45.7129 48.6839 45.627 48.7698L40.7868 53.5025C40.6411 53.6383 40.4492 53.7143 40.2497 53.7143C40.2405 53.7143 40.2313 53.7143 40.2221 53.7135C40.0149 53.7066 39.817 53.6168 39.6743 53.4641L38.211 51.8927C38.0292 51.6978 37.9586 51.4246 38.0238 51.1668L39.487 45.3123L36.6588 42.4841C36.5114 42.3368 36.4286 42.1373 36.4286 41.9286V37.2143C36.4286 37.0056 36.5114 36.8061 36.6588 36.6587L38.2302 35.0873C38.29 35.0275 38.3591 34.9776 38.4343 34.94L41.1429 33.5857V23.3859C39.526 22.8116 37.8115 22.4553 36.0275 22.345L36.1984 22.5159C36.2843 22.6018 36.3495 22.7069 36.3879 22.8228L37.9593 27.5371C38.0836 27.9085 37.9156 28.3136 37.5657 28.4885L34.6569 29.9426L31.6314 35.9943C31.4971 36.262 31.224 36.4286 30.9286 36.4286C30.9002 36.4286 30.8718 36.427 30.8426 36.424C30.5158 36.3879 30.2464 36.1523 30.1666 35.8331L28.6827 29.8981L25.8629 28.4885C25.5966 28.355 25.4286 28.0834 25.4286 27.7857V24.837C20.9487 27.4377 17.6352 31.8198 16.4692 37.0155L17.9329 36.5275L20.9446 33.5159C21.1218 33.3363 21.3704 33.2519 21.6259 33.2957C21.8753 33.3363 22.0902 33.4944 22.2029 33.72L23.657 36.6288L26.5658 38.0829C26.9157 38.2578 27.0837 38.6629 26.9594 39.0343L25.4709 43.5L26.9594 47.9657C27.0837 48.337 26.9157 48.7422 26.5658 48.9171L23.657 50.3711L22.2029 53.28C22.1093 53.4664 21.9459 53.6084 21.7487 53.6736L21.0241 53.9151C24.4716 57.6461 29.3885 60 34.8571 60C45.2546 60 53.7143 51.5411 53.7143 41.1428C53.7143 37.0359 52.3799 33.243 50.1422 30.1428H45.8572Z" fill="#FF3833"/>
<path d="M43.5 39.5714C43.0657 39.5714 42.7143 39.22 42.7143 38.7857V16.7857C42.7143 16.3514 43.0657 16 43.5 16C43.9343 16 44.2858 16.3514 44.2858 16.7857V38.7857C44.2858 39.22 43.9343 39.5714 43.5 39.5714Z" fill="#FF3833"/>
</svg>
