<svg width="307" height="111" viewBox="0 0 307 111" fill="none" xmlns="http://www.w3.org/2000/svg">
<path d="M88.2051 75.2419H173.713L201.244 102.773H242.055" stroke="#222532" stroke-opacity="0.29" stroke-width="2" stroke-miterlimit="10"/>
<path d="M244.603 105.125C245.983 105.125 247.102 104.006 247.102 102.626C247.102 101.246 245.983 100.127 244.603 100.127C243.222 100.127 242.104 101.246 242.104 102.626C242.104 104.006 243.222 105.125 244.603 105.125Z" stroke="#222532" stroke-opacity="0.29" stroke-width="2" stroke-miterlimit="10"/>
<path d="M0 1H85.5077L113.039 28.531H153.849" stroke="#222532" stroke-opacity="0.29" stroke-width="2" stroke-miterlimit="10"/>
<path d="M156.397 30.8836C157.778 30.8836 158.896 29.7647 158.896 28.3845C158.896 27.0043 157.778 25.8854 156.397 25.8854C155.017 25.8854 153.898 27.0043 153.898 28.3845C153.898 29.7647 155.017 30.8836 156.397 30.8836Z" stroke="#222532" stroke-opacity="0.29" stroke-width="2" stroke-miterlimit="10"/>
<path d="M192.554 27.2075L166.282 53.479H147.87" stroke="#222532" stroke-opacity="0.29" stroke-width="2" stroke-miterlimit="10"/>
<path d="M146.604 54.8958C147.436 54.8958 148.11 54.2213 148.11 53.3894C148.11 52.5574 147.436 51.8829 146.604 51.8829C145.772 51.8829 145.097 52.5574 145.097 53.3894C145.097 54.2213 145.772 54.8958 146.604 54.8958Z" stroke="#222532" stroke-opacity="0.29" stroke-width="2" stroke-miterlimit="10"/>
<path d="M193.855 27.549C194.686 27.549 195.36 26.8749 195.36 26.0433C195.36 25.2117 194.686 24.5376 193.855 24.5376C193.023 24.5376 192.349 25.2117 192.349 26.0433C192.349 26.8749 193.023 27.549 193.855 27.549Z" stroke="#222532" stroke-opacity="0.29" stroke-width="2" stroke-miterlimit="10"/>
<path d="M114.799 82.2455L141.07 108.517H159.483" stroke="#222532" stroke-opacity="0.29" stroke-width="2" stroke-miterlimit="10"/>
<path d="M160.749 109.934C161.581 109.934 162.255 109.26 162.255 108.428C162.255 107.597 161.581 106.922 160.749 106.922C159.918 106.922 159.244 107.597 159.244 108.428C159.244 109.26 159.918 109.934 160.749 109.934Z" stroke="#222532" stroke-opacity="0.29" stroke-width="2" stroke-miterlimit="10"/>
<path d="M113.498 82.5864C114.33 82.5864 115.004 81.9122 115.004 81.0806C115.004 80.2491 114.33 79.575 113.498 79.575C112.667 79.575 111.992 80.2491 111.992 81.0806C111.992 81.9122 112.667 82.5864 113.498 82.5864Z" stroke="#222532" stroke-opacity="0.29" stroke-width="2" stroke-miterlimit="10"/>
<path d="M69.6052 65.8831H201.534L216.694 50.7229H262.992L279.995 67.7261H302.735" stroke="#222532" stroke-opacity="0.29" stroke-width="1.5" stroke-miterlimit="10"/>
<path d="M304.321 69.4865C305.299 69.4865 306.091 68.6942 306.091 67.7168C306.091 66.7395 305.299 65.9471 304.321 65.9471C303.344 65.9471 302.552 66.7395 302.552 67.7168C302.552 68.6942 303.344 69.4865 304.321 69.4865Z" stroke="#222532" stroke-opacity="0.29" stroke-width="1.5" stroke-miterlimit="10"/>
</svg>
