<svg width="30" height="30" viewBox="0 0 30 30" fill="none" xmlns="http://www.w3.org/2000/svg">
<path d="M15 30C23.2843 30 30 23.2843 30 15C30 6.71573 23.2843 0 15 0C6.71573 0 0 6.71573 0 15C0 23.2843 6.71573 30 15 30Z" fill="#222532"/>
<path d="M20.9933 17.4756L21.6578 13.14H17.4978V10.3267C17.4978 9.14 18.0778 7.98444 19.9422 7.98444H21.8333V4.29333C21.8333 4.29333 20.1178 4 18.4756 4C15.0489 4 12.8089 6.07556 12.8089 9.83556V13.14H9V17.4756H12.8089V27.9578C13.5733 28.0778 14.3556 28.14 15.1533 28.14C15.9511 28.14 16.7333 28.0778 17.4978 27.9578V17.4756H20.9933Z" fill="white"/>
</svg>
