<svg width="164" height="163" viewBox="0 0 164 163" fill="none" xmlns="http://www.w3.org/2000/svg">
<path fill-rule="evenodd" clip-rule="evenodd" d="M100.493 0.0148418C111.61 -0.306886 121.978 4.6648 132.286 8.82242C142.829 13.0747 156.687 14.7789 161.977 24.812C167.649 35.5727 159.294 48.6576 159.69 60.806C159.978 69.6202 163.942 77.8014 163.992 86.62C164.045 96.0101 163.961 105.68 159.991 114.196C155.922 122.923 149.709 131.286 141.117 135.681C132.631 140.022 121.779 134.716 112.93 138.269C101.759 142.754 95.2368 155.329 83.6894 158.74C70.5093 162.633 54.7636 165.872 42.8995 158.953C31.3022 152.19 31.1369 135.32 24.0378 123.952C16.6975 112.197 1.50643 104.256 0.139128 90.4797C-1.22979 76.6869 7.731 63.2811 16.9897 52.937C25.4645 43.4686 40.148 42.6917 50.0508 34.7168C58.1834 28.1674 60.9076 16.559 69.5126 10.6392C78.5992 4.38806 89.4559 0.334287 100.493 0.0148418Z" fill="#EEF1F6"/>
<path d="M63.9297 127.252C64.0776 127.303 64.233 127.33 64.3894 127.33C64.6773 127.33 64.9581 127.241 65.193 127.074C65.4279 126.908 65.6052 126.672 65.7005 126.401L66.8338 123.163H109.165L110.299 126.401C110.394 126.672 110.571 126.908 110.806 127.074C111.041 127.241 111.322 127.33 111.61 127.33C111.766 127.33 111.922 127.303 112.069 127.252C112.242 127.192 112.4 127.098 112.536 126.976C112.672 126.855 112.783 126.707 112.862 126.543C112.941 126.379 112.987 126.2 112.997 126.018C113.007 125.836 112.981 125.653 112.921 125.481L94.1243 71.7766H97.7214V60.666H89.3884V57.8883H94.9437V49.5553H89.3884V44H86.6107V49.5553H81.0554V57.8883H86.6107V60.666H78.2777V71.7766H81.8748L63.0784 125.481C63.018 125.653 62.992 125.836 63.0021 126.018C63.0122 126.2 63.0581 126.379 63.1372 126.543C63.2162 126.707 63.3269 126.855 63.4629 126.976C63.5989 127.098 63.7575 127.192 63.9297 127.252ZM83.8331 52.333H92.166V55.1106H83.8331V52.333ZM67.806 120.386L68.7781 117.608H107.221L108.193 120.386H67.806ZM91.105 106.497L101.511 101.295L105.927 113.908L91.105 106.497ZM101.56 114.83H74.439L87.9996 108.05L101.56 114.83ZM87.9996 104.945L76.8375 99.3643L87.9996 91.691L99.1616 99.3643L87.9996 104.945ZM90.4508 90.005L96.1812 86.0649L99.8129 96.4408L90.4508 90.005ZM87.9996 88.319L81.7582 84.0289L87.9996 77.093L94.241 84.0289L87.9996 88.319ZM89.8675 75.0167L91.63 73.0599L93.8715 79.4666L89.8675 75.0167ZM87.9996 72.9418L86.951 71.7766H89.0481L87.9996 72.9418ZM86.1316 75.0167L82.1276 79.461L84.3692 73.0543L86.1316 75.0167ZM79.818 86.0649L85.5483 90.005L76.1862 96.4408L79.818 86.0649ZM74.4876 101.295L84.8941 106.497L70.0725 113.908L74.4876 101.295ZM81.0554 63.4436H83.8331V66.2213H86.6107V63.4436H89.3884V66.2213H92.166V63.4436H94.9437V68.9989H81.0554V63.4436Z" fill="#FF3833"/>
<path d="M75.1918 49.5561L74.2099 48.5742C71.4684 51.3158 67.9408 58.1571 74.2099 64.4263L76.1737 62.4625C70.4143 56.703 75.5696 51.1491 76.1737 50.5352L75.1918 49.5561Z" fill="#FF3833"/>
<path d="M71.4949 44.3477C68.1731 47.4314 66.1346 51.6531 65.7854 56.1722C65.6465 60.5303 67.5492 64.7093 71.4324 68.5925L73.3962 66.6287C70.0838 63.3163 68.4575 59.8331 68.5561 56.2819C68.7228 50.5946 73.2851 46.4698 73.3309 46.4295L72.4143 45.3893L71.4949 44.3477Z" fill="#FF3833"/>
<path d="M101.481 64.4263C107.75 58.1571 104.222 51.3158 101.481 48.5742L99.5171 50.538C99.7601 50.7811 105.411 56.5683 99.5171 62.4625L101.481 64.4263Z" fill="#FF3833"/>
<path d="M102.295 66.6287L104.259 68.5925C108.147 64.7037 110.042 60.5303 109.906 56.1722C109.556 51.6531 107.518 47.4314 104.196 44.3477L102.356 46.4309C102.402 46.4712 106.964 50.5974 107.129 56.2833C107.234 59.8331 105.607 63.3163 102.295 66.6287Z" fill="#FF3833"/>
</svg>
