<svg width="164" height="163" viewBox="0 0 164 163" fill="none" xmlns="http://www.w3.org/2000/svg">
<path fill-rule="evenodd" clip-rule="evenodd" d="M100.493 0.0148418C111.61 -0.306886 121.978 4.6648 132.286 8.82242C142.829 13.0747 156.687 14.7789 161.977 24.812C167.649 35.5727 159.294 48.6576 159.69 60.806C159.978 69.6202 163.942 77.8014 163.992 86.62C164.045 96.0101 163.961 105.68 159.991 114.196C155.922 122.923 149.709 131.286 141.117 135.681C132.631 140.022 121.779 134.716 112.93 138.269C101.759 142.754 95.2368 155.329 83.6894 158.74C70.5093 162.633 54.7636 165.872 42.8995 158.953C31.3022 152.19 31.1369 135.32 24.0378 123.952C16.6975 112.197 1.50643 104.256 0.139128 90.4797C-1.22979 76.6869 7.731 63.2811 16.9897 52.937C25.4645 43.4686 40.148 42.6917 50.0508 34.7168C58.1834 28.1674 60.9076 16.559 69.5126 10.6392C78.5992 4.38806 89.4559 0.334287 100.493 0.0148418Z" fill="#EEF1F6"/>
<path d="M131.221 64.375L123.521 58.575C123.321 58.375 123.221 58.275 122.921 58.175L88.2209 32.375C87.5209 31.875 86.5209 31.875 85.8209 32.375L51.1209 58.175C50.9209 58.275 50.7209 58.375 50.5209 58.575L42.8209 64.375C41.9209 65.075 41.7209 66.275 42.4209 67.175C43.1209 68.075 44.3209 68.275 45.2209 67.575L50.0209 63.975V111.975C50.0209 117.475 54.5209 121.975 60.0209 121.975H114.021C119.521 121.975 124.021 117.475 124.021 111.975V63.975L128.821 67.575C129.221 67.875 129.621 67.975 130.021 67.975C130.621 67.975 131.221 67.675 131.621 67.175C132.321 66.275 132.121 65.075 131.221 64.375ZM120.021 111.975C120.021 115.275 117.321 117.975 114.021 117.975H60.0209C56.7209 117.975 54.0209 115.275 54.0209 111.975V61.075L87.0209 36.475L120.021 61.075V111.975ZM77.0209 59.975V74.975H62.0209C60.9209 74.975 60.0209 75.875 60.0209 76.975V92.975C60.0209 94.075 60.9209 94.975 62.0209 94.975H77.0209V109.975C77.0209 111.075 77.9209 111.975 79.0209 111.975H95.0209C96.1209 111.975 97.0209 111.075 97.0209 109.975V94.975H112.021C113.121 94.975 114.021 94.075 114.021 92.975V76.975C114.021 75.875 113.121 74.975 112.021 74.975H97.0209V59.975C97.0209 58.875 96.1209 57.975 95.0209 57.975H79.0209C77.9209 57.975 77.0209 58.875 77.0209 59.975ZM81.0209 76.975V61.975H93.0209V76.975C93.0209 78.075 93.9209 78.975 95.0209 78.975H110.021V90.975H95.0209C93.9209 90.975 93.0209 91.875 93.0209 92.975V107.975H81.0209V92.975C81.0209 91.875 80.1209 90.975 79.0209 90.975H64.0209V78.975H79.0209C80.1209 78.975 81.0209 78.075 81.0209 76.975Z" fill="#FF3833"/>
</svg>
