<svg width="30" height="30" viewBox="0 0 30 30" fill="none" xmlns="http://www.w3.org/2000/svg">
<path d="M15 30C23.2843 30 30 23.2843 30 15C30 6.71573 23.2843 0 15 0C6.71573 0 0 6.71573 0 15C0 23.2843 6.71573 30 15 30Z" fill="#222532"/>
<path d="M14.4467 6.70222C16.9689 6.70222 17.2667 6.71111 18.2622 6.75778C19.1822 6.8 19.6822 6.95333 20.0156 7.08222C20.4556 7.25333 20.7711 7.45778 21.1022 7.78889C21.4333 8.12 21.6378 8.43333 21.8089 8.87555C21.9378 9.20889 22.0911 9.70889 22.1333 10.6289C22.1778 11.6244 22.1889 11.9244 22.1889 14.4444C22.1889 16.9644 22.18 17.2644 22.1333 18.26C22.0911 19.18 21.9378 19.68 21.8089 20.0133C21.6378 20.4533 21.4333 20.7689 21.1022 21.1C20.7711 21.4311 20.4578 21.6356 20.0156 21.8067C19.6822 21.9356 19.1822 22.0889 18.2622 22.1311C17.2667 22.1756 16.9689 22.1867 14.4467 22.1867C11.9244 22.1867 11.6267 22.1778 10.6311 22.1311C9.71111 22.0889 9.21111 21.9356 8.87777 21.8067C8.43777 21.6356 8.12222 21.4311 7.79111 21.1C7.46 20.7689 7.25556 20.4556 7.08445 20.0133C6.95556 19.68 6.80222 19.18 6.76 18.26C6.71555 17.2644 6.70444 16.9644 6.70444 14.4444C6.70444 11.9244 6.71333 11.6244 6.76 10.6289C6.80222 9.70889 6.95556 9.20889 7.08445 8.87555C7.25556 8.43555 7.46 8.12 7.79111 7.78889C8.12222 7.45778 8.43555 7.25333 8.87777 7.08222C9.21111 6.95333 9.71111 6.8 10.6311 6.75778C11.6267 6.71333 11.9267 6.70222 14.4467 6.70222ZM14.4467 5C11.8822 5 11.56 5.01111 10.5533 5.05778C9.54889 5.10444 8.86222 5.26222 8.26 5.49778C7.64 5.74 7.11333 6.06222 6.58666 6.58667C6.06222 7.11111 5.73778 7.63778 5.49778 8.26C5.26444 8.86 5.10444 9.54667 5.05777 10.5533C5.01111 11.56 5 11.8822 5 14.4467C5 17.0111 5.01111 17.3333 5.05777 18.34C5.10444 19.3444 5.26222 20.0311 5.49778 20.6333C5.74 21.2533 6.06222 21.78 6.58666 22.3067C7.11111 22.8311 7.63777 23.1556 8.26 23.3956C8.86 23.6289 9.54666 23.7889 10.5533 23.8356C11.56 23.8822 11.8822 23.8933 14.4467 23.8933C17.0111 23.8933 17.3333 23.8822 18.34 23.8356C19.3444 23.7889 20.0311 23.6311 20.6333 23.3956C21.2533 23.1533 21.78 22.8311 22.3067 22.3067C22.8311 21.7822 23.1555 21.2556 23.3955 20.6333C23.6289 20.0333 23.7889 19.3467 23.8356 18.34C23.8822 17.3333 23.8933 17.0111 23.8933 14.4467C23.8933 11.8822 23.8822 11.56 23.8356 10.5533C23.7889 9.54889 23.6311 8.86222 23.3955 8.26C23.1533 7.64 22.8311 7.11333 22.3067 6.58667C21.7822 6.06222 21.2555 5.73778 20.6333 5.49778C20.0333 5.26444 19.3467 5.10444 18.34 5.05778C17.3333 5.01111 17.0111 5 14.4467 5Z" fill="white"/>
<path d="M14.4467 9.59558C11.7689 9.59558 9.59778 11.7667 9.59778 14.4445C9.59778 17.1222 11.7689 19.2934 14.4467 19.2934C17.1244 19.2934 19.2956 17.1222 19.2956 14.4445C19.2956 11.7667 17.1244 9.59558 14.4467 9.59558ZM14.4467 17.5934C12.7089 17.5934 11.2978 16.1845 11.2978 14.4445C11.2978 12.7045 12.7067 11.2956 14.4467 11.2956C16.1867 11.2956 17.5956 12.7045 17.5956 14.4445C17.5956 16.1845 16.1867 17.5934 14.4467 17.5934Z" fill="white"/>
<path d="M19.4889 10.5356C20.1149 10.5356 20.6223 10.0282 20.6223 9.40225C20.6223 8.77633 20.1149 8.26892 19.4889 8.26892C18.863 8.26892 18.3556 8.77633 18.3556 9.40225C18.3556 10.0282 18.863 10.5356 19.4889 10.5356Z" fill="white"/>
</svg>
