<svg width="58" height="39" viewBox="0 0 58 39" fill="none" xmlns="http://www.w3.org/2000/svg">
<path d="M30.8291 25.256C30.8291 32.737 36.8931 38.801 44.3741 38.801C51.8551 38.801 57.9191 32.737 57.9191 25.256C57.9191 17.775 51.8551 11.711 44.3741 11.711C43.9811 11.711 43.5951 11.737 43.2101 11.77C43.8421 3.599 47.1951 0 47.1951 0C30.1241 9.454 30.8291 25.256 30.8291 25.256Z" fill="#EE2536"/>
<path d="M0.0041032 25.256C0.0041032 32.737 6.0681 38.801 13.5491 38.801C21.0301 38.801 27.0941 32.737 27.0941 25.256C27.0941 17.775 21.0301 11.711 13.5491 11.711C13.1561 11.711 12.7701 11.737 12.3851 11.77C13.0171 3.599 16.3711 0 16.3711 0C-0.700893 9.454 0.0041032 25.256 0.0041032 25.256Z" fill="#EE2536"/>
</svg>
