<svg width="17" height="22" viewBox="0 0 17 22" fill="none" xmlns="http://www.w3.org/2000/svg">
<path d="M8.89986 0.024292C4.42178 0.024292 0.799805 3.64627 0.799805 8.12435C0.799805 9.92436 1.67786 11.8561 2.3364 12.9317C3.80714 15.3902 8.43888 21.7122 8.43888 21.7122C8.7023 22.0635 9.09742 22.0635 9.36084 21.7122C9.36084 21.7122 13.9926 15.3902 15.4633 12.9317C16.1219 11.8561 16.9999 9.92436 16.9999 8.12435C16.9999 3.64627 13.3779 0.024292 8.89986 0.024292ZM8.89986 11.3951C7.0779 11.3951 5.60715 9.92436 5.60715 8.1024C5.60715 6.28043 7.0779 4.80969 8.89986 4.80969C10.7218 4.80969 12.1926 6.28043 12.1926 8.1024C12.1926 9.92436 10.7218 11.3951 8.89986 11.3951Z" fill="white"/>
</svg>
