<svg width="164" height="163" viewBox="0 0 164 163" fill="none" xmlns="http://www.w3.org/2000/svg">
<path fill-rule="evenodd" clip-rule="evenodd" d="M100.493 0.0148418C111.61 -0.306886 121.978 4.6648 132.286 8.82242C142.829 13.0747 156.687 14.7789 161.977 24.812C167.649 35.5727 159.294 48.6576 159.69 60.806C159.978 69.6202 163.942 77.8014 163.992 86.62C164.045 96.0101 163.961 105.68 159.991 114.196C155.922 122.923 149.709 131.286 141.117 135.681C132.631 140.022 121.779 134.716 112.93 138.269C101.759 142.754 95.2368 155.329 83.6894 158.74C70.5093 162.633 54.7636 165.872 42.8995 158.953C31.3022 152.19 31.1369 135.32 24.0378 123.952C16.6975 112.197 1.50643 104.256 0.139128 90.4797C-1.22979 76.6869 7.731 63.2811 16.9897 52.937C25.4645 43.4686 40.148 42.6917 50.0508 34.7168C58.1834 28.1674 60.9076 16.559 69.5126 10.6392C78.5992 4.38806 89.4559 0.334287 100.493 0.0148418Z" fill="#EEF1F6"/>
<path d="M115.459 108.861L109.727 72.8593L112.454 70.1327C116.971 65.6169 120.144 59.9332 121.623 53.7101L123.237 46.9227C123.278 46.7536 123.274 46.5768 123.226 46.4091C123.178 46.2415 123.089 46.0887 122.965 45.9653C122.842 45.8419 122.689 45.7521 122.521 45.7044C122.354 45.6568 122.177 45.6529 122.008 45.6931L115.22 47.3074C108.997 48.7866 103.314 51.96 98.7979 56.4769L96.0713 59.2035L60.0694 53.472C58.8559 53.2806 57.6159 53.3774 56.4498 53.7546C55.2837 54.1317 54.2243 54.7786 53.3572 55.6428L50.5311 58.4689C50.3409 58.6591 50.2345 58.9174 50.2352 59.1871C50.2359 59.4567 50.3437 59.7156 50.5349 59.9068L58.8751 68.247L56.8358 70.2863C56.6514 70.2135 56.4501 70.196 56.2565 70.2359C56.0629 70.2759 55.8855 70.3715 55.746 70.511L52.3052 73.9518C52.115 74.142 52.0086 74.4003 52.0093 74.67C52.01 74.9396 52.1179 75.1985 52.309 75.3897L58.2562 81.3369C58.4474 81.528 58.7063 81.6359 58.9759 81.6366C59.2456 81.6373 59.5039 81.5309 59.6941 81.3407L63.1352 77.8995C63.2748 77.76 63.3704 77.5826 63.4103 77.389C63.4502 77.1955 63.4327 76.9941 63.36 76.8097L65.3989 74.7708L72.9511 82.3229L69.2753 85.9987L56.9207 83.1104C56.7525 83.0711 56.5773 83.0751 56.4116 83.1222C56.2459 83.1693 56.0951 83.2579 55.9734 83.3796L52.8935 86.4595C52.7033 86.6497 52.5969 86.908 52.5976 87.1777C52.5983 87.4473 52.7061 87.7062 52.8973 87.8974L81.0332 116.033C81.2244 116.224 81.4833 116.332 81.7529 116.333C82.0226 116.334 82.2809 116.227 82.4711 116.037L85.551 112.957C85.6727 112.836 85.7612 112.685 85.8083 112.519C85.8554 112.353 85.8595 112.178 85.8202 112.01L82.9315 99.6549L86.6073 95.9791L94.1594 103.531L92.1201 105.571C91.9357 105.498 91.7344 105.48 91.5408 105.52C91.3473 105.56 91.1699 105.656 91.0303 105.795L87.5895 109.236C87.3993 109.426 87.2929 109.685 87.2936 109.954C87.2944 110.224 87.4022 110.483 87.5934 110.674L93.5405 116.621C93.7317 116.812 93.9906 116.92 94.2602 116.921C94.5299 116.922 94.7882 116.815 94.9784 116.625L98.4196 113.184C98.5591 113.044 98.6547 112.867 98.6946 112.673C98.7346 112.48 98.7171 112.278 98.6443 112.094L100.683 110.055L109.023 118.395C109.214 118.586 109.473 118.694 109.743 118.695C110.012 118.695 110.271 118.589 110.461 118.399L113.287 115.573C114.151 114.706 114.798 113.646 115.176 112.48C115.553 111.314 115.65 110.075 115.459 108.861ZM61.5714 93.7034L55.0522 87.1842L57.0176 85.2189L67.5851 87.6897L61.5714 93.7034ZM58.9699 79.1819L54.4645 74.6764L56.4713 72.6696L60.9767 77.1751L58.9699 79.1819ZM58.3379 71.6681L63.7146 66.2914C65.4066 64.5991 67.5361 63.41 69.8677 62.8558L71.0791 62.5677L70.7906 63.7787C70.2365 66.1104 69.0475 68.2399 67.3551 69.9319L61.9784 75.3086L58.3379 71.6681ZM74.3857 80.8895L66.8333 73.3371L68.7969 71.3736C70.7536 69.4173 72.1283 66.9551 72.7692 64.2592L73.4408 61.4349C73.481 61.2658 73.4771 61.089 73.4294 60.9214C73.3818 60.7538 73.2919 60.6011 73.1686 60.4777C73.0452 60.3543 72.8924 60.2645 72.7248 60.2169C72.5572 60.1692 72.3804 60.1653 72.2114 60.2055L69.387 60.8771C66.6912 61.5179 64.229 62.8927 62.2727 64.8494L60.3091 66.8129L52.6902 59.194L54.7993 57.0849C55.4401 56.4461 56.2231 55.9679 57.0849 55.6891C57.9468 55.4103 58.8633 55.3387 59.7602 55.4801L94.2969 60.9778L74.3857 80.8895ZM76.5171 81.6416L77.8181 82.9426L70.887 89.8738L69.5857 88.5725L76.5171 81.6416ZM73.7857 105.918L63.0131 95.1451L68.1517 90.0065L78.9241 100.779L73.7857 105.918ZM72.329 91.3157L79.2601 84.3846L81.1824 86.3069L74.2513 93.2381L72.329 91.3157ZM75.693 94.6798L82.6241 87.7487L84.5464 89.671L77.6153 96.6021L75.693 94.6798ZM80.3583 99.3451L79.0568 98.0436L85.9879 91.1125L87.2892 92.4137L80.3583 99.3451ZM88.7235 90.98L77.9509 80.2073L100.24 57.9186C104.491 53.6661 109.842 50.6784 115.701 49.2857L120.875 48.0553L119.645 53.2298C118.252 59.0887 115.264 64.4397 111.012 68.6912L88.7235 90.98ZM83.7119 111.913L81.7466 113.879L75.2272 107.359L81.2409 101.346L83.7119 111.913ZM94.2545 114.466L89.7491 109.961L91.7559 107.954L96.2613 112.46L94.2545 114.466ZM93.6224 106.953L98.9992 101.576C100.691 99.8835 102.82 98.6943 105.152 98.14L106.363 97.8517L106.075 99.0632C105.521 101.395 104.332 103.524 102.639 105.216L97.2627 110.593L93.6224 106.953ZM109.737 116.241L102.118 108.621L104.081 106.658C106.038 104.702 107.413 102.239 108.054 99.5436L108.725 96.7192C108.765 96.5502 108.761 96.3734 108.714 96.2058C108.666 96.0382 108.576 95.8854 108.453 95.762C108.33 95.6386 108.177 95.5488 108.009 95.5012C107.842 95.4535 107.665 95.4496 107.496 95.4898L104.671 96.1614C101.975 96.8022 99.5133 98.177 97.557 100.134L95.5934 102.097L88.0413 94.5451L107.952 74.6341L113.45 109.171C113.591 110.068 113.52 110.984 113.241 111.846C112.962 112.708 112.484 113.491 111.845 114.132L109.737 116.241Z" fill="#FF3833"/>
<path d="M102.772 57.3372C102.632 57.3309 102.491 57.3538 102.36 57.4045C102.229 57.4553 102.11 57.5327 102.011 57.632L95.4026 64.2404C95.2634 64.3797 95.1679 64.5566 95.1279 64.7497C95.0878 64.9428 95.1049 65.1437 95.1771 65.3279C95.2492 65.512 95.3733 65.6715 95.5342 65.7867C95.6951 65.902 95.8858 65.9681 96.0831 65.977C97.8795 66.0479 99.5862 66.7955 100.861 68.0699C102.135 69.3443 102.883 71.051 102.953 72.8474C102.962 73.0446 103.028 73.2354 103.144 73.3963C103.259 73.5571 103.418 73.6812 103.603 73.7534C103.787 73.8256 103.988 73.8426 104.181 73.8026C104.374 73.7625 104.551 73.6671 104.69 73.5278L111.298 66.9193C111.398 66.8201 111.475 66.7012 111.526 66.5701C111.577 66.4391 111.6 66.2988 111.593 66.1582C111.49 63.8559 110.526 61.6718 108.892 60.0382C107.259 58.4046 105.075 57.4407 102.772 57.3372ZM104.65 70.684C104.22 69.1592 103.405 67.7689 102.283 66.6472C101.162 65.5256 99.7715 64.7104 98.2467 64.2803L103.126 59.401C104.766 59.5652 106.301 60.2936 107.469 61.4616C108.637 62.6295 109.365 64.1647 109.53 65.8047L104.65 70.684Z" fill="#FF3833"/>
<path d="M94.9538 67.7677C94.7626 67.5766 94.5037 67.4687 94.234 67.468C93.9644 67.4673 93.7061 67.5737 93.5159 67.7639L92.6942 68.5856C92.504 68.7757 92.3976 69.0341 92.3983 69.3037C92.3991 69.5734 92.5069 69.8323 92.6981 70.0235C92.8892 70.2147 93.1481 70.3225 93.4178 70.3232C93.6874 70.3239 93.9458 70.2175 94.1359 70.0273L94.9576 69.2056C95.1478 69.0155 95.2542 68.7571 95.2535 68.4875C95.2528 68.2178 95.145 67.9589 94.9538 67.7677Z" fill="#FF3833"/>
<path d="M91.8385 70.8849C91.6474 70.6937 91.3885 70.5859 91.1188 70.5852C90.8491 70.5845 90.5908 70.6909 90.4007 70.8811L82.0022 79.2796C81.812 79.4697 81.7056 79.7281 81.7063 79.9977C81.707 80.2674 81.8148 80.5263 82.006 80.7174C82.1972 80.9086 82.4561 81.0164 82.7258 81.0172C82.9954 81.0179 83.2537 80.9115 83.4439 80.7213L91.8424 72.3228C92.0326 72.1326 92.139 71.8743 92.1383 71.6047C92.1375 71.335 92.0297 71.0761 91.8385 70.8849Z" fill="#FF3833"/>
</svg>
