<svg width="24" height="24" viewBox="0 0 24 24" fill="none" xmlns="http://www.w3.org/2000/svg">
<path d="M17.0313 14.3492L17.0268 14.3537C16.5668 14.8136 16.2951 15.2547 16.0324 15.6812C15.9431 15.8261 15.8548 15.9694 15.7606 16.1111C15.5835 16.3775 15.374 16.6505 15.0859 16.8521C14.7839 17.0633 14.4291 17.1735 13.9998 17.1735C13.1645 17.1735 12.3885 16.7648 11.692 16.2417C10.991 15.7153 10.3015 15.0189 9.64362 14.351C9.60307 14.3098 9.56237 14.2685 9.52155 14.2271C8.90369 13.6005 8.26088 12.9486 7.76668 12.2937C7.2438 11.6009 6.82658 10.8286 6.82658 10.0001C6.82658 9.57575 6.93564 9.22474 7.14536 8.92532C7.34516 8.64009 7.61602 8.43203 7.88036 8.25536C8.01802 8.16335 8.15767 8.07657 8.29945 7.98848C8.72768 7.7224 9.17532 7.44425 9.64641 6.97318C9.77261 6.84694 9.84601 6.59998 9.66081 6.09968C9.48175 5.61596 9.10607 5.04427 8.62375 4.48461C8.14571 3.92991 7.589 3.41713 7.08012 3.04735C6.82555 2.86237 6.59178 2.71962 6.39318 2.62514C6.18464 2.52592 6.05631 2.5 6 2.5C5.95269 2.5 5.85166 2.52063 5.68713 2.61059C5.52828 2.69744 5.34426 2.83009 5.14091 3.00451C4.73434 3.35326 4.29623 3.82912 3.88651 4.32029C3.4791 4.80867 3.11072 5.29889 2.84353 5.66812C2.71017 5.8524 2.6026 6.00575 2.52861 6.11266C2.51959 6.1257 2.51107 6.13804 2.50307 6.14966C2.55177 7.36929 3.17755 9.22659 4.13832 11.1432C5.13118 13.1239 6.4343 15.074 7.68022 16.3197L7.68026 16.3198C8.926 17.5656 10.8761 18.8688 12.8568 19.8616C14.7734 20.8224 16.6308 21.4482 17.8503 21.4969C17.862 21.4889 17.8743 21.4804 17.8873 21.4714C17.9942 21.3974 18.1476 21.2898 18.3319 21.1565C18.7011 20.8893 19.1913 20.5209 19.6797 20.1135C20.1709 19.7038 20.6467 19.2657 20.9955 18.8591C21.1699 18.6558 21.3026 18.4718 21.3894 18.3129C21.4793 18.1484 21.5 18.0474 21.5 18.0001L17.0313 14.3492ZM17.0313 14.3492C17.1517 14.2328 17.3938 14.1622 17.8907 14.3473C18.3746 14.5275 18.9475 14.9033 19.5086 15.3846C20.0648 15.8616 20.5794 16.4167 20.9507 16.9241C21.1364 17.1779 21.2797 17.4109 21.3746 17.6089C21.4741 17.8167 21.5 17.9443 21.5 18L17.0313 14.3492Z" stroke="#EE2536"/>
</svg>
