<svg width="76" height="76" viewBox="0 0 76 76" fill="none" xmlns="http://www.w3.org/2000/svg">
<circle cx="38" cy="38" r="31" fill="#F5F5F5"/>
<circle cx="38" cy="38" r="37.5" stroke="black" stroke-dasharray="2 2"/>
<path d="M29.6675 23.1277L27.4946 20.1055L26.6172 20.7283L28.7902 23.7505L29.6675 23.1277Z" fill="#FF3833"/>
<path d="M35.2651 18H34.1868V21.7142H35.2651V18Z" fill="#FF3833"/>
<path d="M42.7943 20.7464L41.9166 20.124L39.7452 23.1474L40.6229 23.7698L42.7943 20.7464Z" fill="#FF3833"/>
<path d="M40.8003 37.4274C40.8003 37.5702 40.7284 37.6417 40.7284 37.7845C40.7284 40.2845 45.3291 42.3559 50.8642 42.3559C56.3275 42.3559 61 40.2131 61 37.7131C61 35.2131 56.3993 33.0703 50.8642 33.0703C47.7013 33.2132 41.3035 34.356 40.8003 37.4274Z" fill="#FF3833"/>
<path d="M39.6502 49.2153V42.9297C37.7811 43.3583 35.7684 43.5725 33.6837 43.5011C34.8339 45.2868 35.4808 47.5725 35.2652 49.7867C36.8466 49.7153 38.2843 49.5724 39.6502 49.2153Z" fill="#FF3833"/>
<path d="M24.9138 38.8571C27.7173 38.7856 30.7365 39.9999 32.7492 42.357C35.0496 42.5713 37.4936 42.4284 39.5783 41.857V37.8571C39.5783 37.7856 39.5783 37.7142 39.5783 37.6428C39.6502 36.9999 40.0096 36.0714 40.7285 35.2857C35.9841 36.7857 27.8611 36.4999 24.5543 33C24.77 37.7856 24.4825 37.9285 24.9138 38.8571Z" fill="#FF3833"/>
<path d="M24.6981 30.9288C25.9202 35.8573 42.3818 36.9287 44.8259 30.9288C45.2572 27.2145 38.5719 25.8574 34.762 25.8574C29.2988 25.8574 24.6263 28.0002 24.6263 30.5002C24.6263 30.5716 24.6981 30.7145 24.6981 30.9288Z" fill="#FF3833"/>
<path d="M39.6502 50.2842C38.2125 50.6413 36.7029 50.8556 35.1214 50.8556C34.6182 53.3556 33.2524 55.4984 31.3834 56.9269C32.4617 57.1412 33.6118 57.2126 34.762 57.2126C37.3498 57.2126 39.8658 56.7127 41.7348 55.9269C38.6438 53.7841 40.0096 51.2842 39.6502 50.2842Z" fill="#FF3833"/>
<path d="M50.8642 43.4984C47.6294 43.4984 42.9568 42.7127 40.7284 40.2842V45.2127C40.7284 47.7126 45.3291 49.8555 50.8642 49.8555C56.3275 49.8555 61 47.7126 61 45.2127V40.2842C58.6997 42.7127 54.1709 43.4984 50.8642 43.4984Z" fill="#FF3833"/>
<path d="M40.7284 47.6426V52.5711C40.7284 53.9996 42.3099 54.9996 42.3818 55.071C44.6821 56.6424 47.9888 57.2139 50.8642 57.2139C56.3275 57.2139 61 55.071 61 52.5711V47.6426C59.2028 49.5711 55.3929 50.8568 50.8642 50.8568C46.3354 50.8568 42.5255 49.5711 40.7284 47.6426Z" fill="#FF3833"/>
<path d="M24.9137 39.9287C20.0256 40.0716 16 44.0715 16 48.9286C16 53.9285 20.0974 57.9999 25.1294 57.9999C26.9265 57.9999 28.5799 57.4999 29.9457 56.5713C30.0895 56.4999 30.2332 56.357 30.377 56.2856C37.7811 51.0714 33.7556 39.7144 24.9137 39.9287ZM25.1294 48.4286C26.4952 48.4286 27.5735 49.5 27.5735 50.8571C27.5735 52 26.7827 52.9999 25.7045 53.2142V54.5713H24.6262V53.2142C23.5479 52.9999 22.6853 52 22.6853 50.8571H23.7636C23.7636 51.5714 24.4105 52.2142 25.1294 52.2142C25.8482 52.2142 26.4952 51.5714 26.4952 50.8571C26.4952 50.1428 25.8482 49.5 25.1294 49.5C23.7636 49.5 22.6853 48.4286 22.6853 47.0715C22.6853 45.9286 23.476 44.9286 24.6262 44.7144V43.3572H25.7045V44.7144C26.7827 44.9286 27.5735 45.9286 27.5735 47.0715H26.4952C26.4952 46.3572 25.8482 45.7143 25.1294 45.7143C24.4105 45.7143 23.7636 46.3572 23.7636 47.0715C23.7636 47.7857 24.4105 48.4286 25.1294 48.4286Z" fill="#FF3833"/>
</svg>
