<svg width="58" height="39" viewBox="0 0 58 39" fill="none" xmlns="http://www.w3.org/2000/svg">
<path d="M27.0899 25.256C27.0899 32.737 21.0259 38.801 13.5449 38.801C6.06389 38.801 -0.000106812 32.737 -0.000106812 25.256C-0.000106812 17.775 6.06389 11.711 13.5449 11.711C13.9379 11.711 14.3239 11.737 14.7089 11.77C14.0769 3.599 10.7239 0 10.7239 0C27.7949 9.454 27.0899 25.256 27.0899 25.256Z" fill="#EE2536"/>
<path d="M57.9148 25.256C57.9148 32.737 51.8508 38.801 44.3698 38.801C36.8888 38.801 30.8248 32.737 30.8248 25.256C30.8248 17.775 36.8888 11.711 44.3698 11.711C44.7628 11.711 45.1488 11.737 45.5338 11.77C44.9018 3.599 41.5478 0 41.5478 0C58.6198 9.454 57.9148 25.256 57.9148 25.256Z" fill="#EE2536"/>
</svg>
