<svg width="145" height="157" viewBox="0 0 145 157" fill="none" xmlns="http://www.w3.org/2000/svg">
<g filter="url(#filter0_ddddd_714_1121)">
<path d="M136.189 52.2353C136.189 84.6901 109.731 111 77.0943 111C44.4574 111 18 84.6901 18 52.2353C18 19.7804 62.026 3 94.6629 3C127.3 3 136.189 19.7804 136.189 52.2353Z" fill="#F9EEEE"/>
</g>
<path d="M91.6807 32H64.3943V54.7136H53V82H75.7886H80.2864H103.075V54.7136H91.6807V32ZM68.8171 36.4978H73.5397V41.8201H82.4603V36.4978H87.1829V54.7136H80.2864H75.7886H68.8171V36.4978ZM57.4228 77.5772V59.1364H62.1454V64.4588H71.066V59.2864H75.7886V77.5023H57.4228V77.5772ZM98.6522 77.5772H80.2864V59.2864H85.009V64.4588H93.9295V59.1364H98.6522V77.5772Z" fill="#FF3833"/>
<defs>
<filter id="filter0_ddddd_714_1121" x="0" y="0" width="144.189" height="157" filterUnits="userSpaceOnUse" color-interpolation-filters="sRGB">
<feFlood flood-opacity="0" result="BackgroundImageFix"/>
<feColorMatrix in="SourceAlpha" type="matrix" values="0 0 0 0 0 0 0 0 0 0 0 0 0 0 0 0 0 0 127 0" result="hardAlpha"/>
<feOffset/>
<feColorMatrix type="matrix" values="0 0 0 0 0 0 0 0 0 0 0 0 0 0 0 0 0 0 0.1 0"/>
<feBlend mode="normal" in2="BackgroundImageFix" result="effect1_dropShadow_714_1121"/>
<feColorMatrix in="SourceAlpha" type="matrix" values="0 0 0 0 0 0 0 0 0 0 0 0 0 0 0 0 0 0 127 0" result="hardAlpha"/>
<feOffset dy="2"/>
<feGaussianBlur stdDeviation="2.5"/>
<feColorMatrix type="matrix" values="0 0 0 0 0 0 0 0 0 0 0 0 0 0 0 0 0 0 0.1 0"/>
<feBlend mode="normal" in2="effect1_dropShadow_714_1121" result="effect2_dropShadow_714_1121"/>
<feColorMatrix in="SourceAlpha" type="matrix" values="0 0 0 0 0 0 0 0 0 0 0 0 0 0 0 0 0 0 127 0" result="hardAlpha"/>
<feOffset dx="-1" dy="8"/>
<feGaussianBlur stdDeviation="4"/>
<feColorMatrix type="matrix" values="0 0 0 0 0 0 0 0 0 0 0 0 0 0 0 0 0 0 0.09 0"/>
<feBlend mode="normal" in2="effect2_dropShadow_714_1121" result="effect3_dropShadow_714_1121"/>
<feColorMatrix in="SourceAlpha" type="matrix" values="0 0 0 0 0 0 0 0 0 0 0 0 0 0 0 0 0 0 127 0" result="hardAlpha"/>
<feOffset dx="-3" dy="19"/>
<feGaussianBlur stdDeviation="5.5"/>
<feColorMatrix type="matrix" values="0 0 0 0 0 0 0 0 0 0 0 0 0 0 0 0 0 0 0.05 0"/>
<feBlend mode="normal" in2="effect3_dropShadow_714_1121" result="effect4_dropShadow_714_1121"/>
<feColorMatrix in="SourceAlpha" type="matrix" values="0 0 0 0 0 0 0 0 0 0 0 0 0 0 0 0 0 0 127 0" result="hardAlpha"/>
<feOffset dx="-5" dy="33"/>
<feGaussianBlur stdDeviation="6.5"/>
<feColorMatrix type="matrix" values="0 0 0 0 0 0 0 0 0 0 0 0 0 0 0 0 0 0 0.01 0"/>
<feBlend mode="normal" in2="effect4_dropShadow_714_1121" result="effect5_dropShadow_714_1121"/>
<feBlend mode="normal" in="SourceGraphic" in2="effect5_dropShadow_714_1121" result="shape"/>
</filter>
</defs>
</svg>
