<svg width="76" height="76" viewBox="0 0 76 76" fill="none" xmlns="http://www.w3.org/2000/svg">
<circle cx="38" cy="38" r="37.5" stroke="black" stroke-dasharray="2 2"/>
<circle cx="38" cy="38" r="31" fill="#F5F5F5"/>
<path d="M23.1717 38.751V41.1255L14.9021 38.3813C14.7447 38.348 14.5962 38.2818 14.4663 38.1872C14.3364 38.0925 14.2281 37.9715 14.1486 37.8322C14.0691 37.6929 14.0202 37.5383 14.0051 37.3788C13.9899 37.2193 14.0089 37.0584 14.0608 36.9067C14.1126 36.755 14.1962 36.616 14.306 36.4988C14.4158 36.3816 14.5492 36.2889 14.6976 36.2268C14.846 36.1647 15.0059 36.1346 15.1668 36.1385C15.3277 36.1424 15.486 36.1802 15.6311 36.2494L23.1717 38.751ZM19.6406 43.2415C19.3536 43.154 19.0436 43.1807 18.7759 43.316C18.5082 43.4514 18.3037 43.6848 18.2054 43.9672C18.1558 44.1071 18.1348 44.2554 18.1436 44.4035C18.1524 44.5516 18.1908 44.6965 18.2566 44.8296C18.3223 44.9627 18.4142 45.0813 18.5267 45.1786C18.6392 45.2759 18.77 45.3498 18.9116 45.396L23.1717 46.8022V44.4208L19.6406 43.2415ZM30.8239 19.2013L48.3951 25.1479C48.5367 25.1958 48.6865 25.2155 48.8358 25.2058C48.9851 25.1962 49.131 25.1573 49.2652 25.0915C49.3995 25.0257 49.5194 24.9342 49.6181 24.8223C49.7168 24.7103 49.7924 24.5801 49.8405 24.4391C49.8887 24.2981 49.9085 24.149 49.8988 24.0004C49.8891 23.8517 49.8501 23.7065 49.784 23.5728C49.7178 23.4392 49.6259 23.3199 49.5135 23.2216C49.4011 23.1233 49.2703 23.0481 49.1286 23.0001L31.5575 17.0604C31.2714 16.9635 30.9584 16.9838 30.6873 17.1167C30.4162 17.2496 30.2093 17.4843 30.112 17.7691C30.0147 18.0539 30.0351 18.3655 30.1686 18.6354C30.3021 18.9053 30.5378 19.1113 30.8239 19.2081V19.2013ZM17.121 27.4952C16.9771 27.4408 16.8236 27.416 16.6698 27.4222C16.516 27.4285 16.3651 27.4658 16.2262 27.5318C16.0873 27.5977 15.9632 27.6911 15.8615 27.8061C15.7598 27.9212 15.6826 28.0555 15.6345 28.2011C15.5864 28.3467 15.5685 28.5004 15.5818 28.6531C15.5951 28.8058 15.6393 28.9542 15.7118 29.0894C15.7843 29.2246 15.8836 29.3437 16.0036 29.4396C16.1237 29.5355 16.262 29.6062 16.4103 29.6475L20.5109 31.0082C20.6271 31.046 20.7486 31.0651 20.8708 31.0649C21.1421 31.0659 21.4048 30.9706 21.6117 30.7959C21.8186 30.6213 21.9561 30.3789 21.9995 30.1123C22.0429 29.8458 21.9893 29.5726 21.8484 29.3418C21.7075 29.1111 21.4885 28.938 21.2308 28.8537L17.121 27.4952ZM14.8839 23.7463L27.974 28.0894C28.0899 28.1288 28.2115 28.1487 28.3339 28.1483C28.6091 28.1548 28.8773 28.0618 29.0889 27.8867C29.3006 27.7115 29.4413 27.466 29.4852 27.1955C29.5291 26.9251 29.4732 26.6479 29.3277 26.4153C29.1822 26.1827 28.9571 26.0104 28.6939 25.9303L15.6038 21.5963C15.4604 21.5426 15.3076 21.5182 15.1545 21.5247C15.0014 21.5312 14.8512 21.5683 14.7129 21.634C14.5746 21.6996 14.451 21.7923 14.3495 21.9066C14.248 22.0209 14.1707 22.1544 14.1223 22.2991C14.0738 22.4438 14.0552 22.5967 14.0675 22.7488C14.0798 22.9008 14.1228 23.0488 14.1939 23.1839C14.265 23.3191 14.3628 23.4385 14.4813 23.5351C14.5999 23.6317 14.7368 23.7036 14.8839 23.7463ZM32.3024 30.2235L25.2676 32.8498L42.5813 39.3134L49.6139 36.6871L32.3024 30.2235ZM35.5465 29.0124L52.8602 35.4761L59.895 32.8498L42.5813 26.3862L35.5465 29.0124ZM23.1717 38.751L32.1475 41.722C32.4128 41.7988 32.641 41.969 32.7897 42.2009C32.9383 42.4327 32.9972 42.7105 32.9554 42.9824C32.9136 43.2543 32.7739 43.5018 32.5624 43.6788C32.3509 43.8558 32.082 43.9503 31.8058 43.9446C31.681 43.9461 31.5571 43.9229 31.4413 43.8765L23.1717 41.1255V44.414L28.6848 46.251C28.9334 46.3403 29.1431 46.5128 29.278 46.739C29.4129 46.9652 29.4646 47.2311 29.4242 47.4911C29.3839 47.7511 29.2539 47.9891 29.0567 48.1642C28.8594 48.3393 28.6071 48.4407 28.3431 48.451C28.2203 48.4485 28.0981 48.4333 27.9786 48.4056L23.1717 46.7954V52.5332L41.4422 59.3371V41.3069L23.1717 34.4804V38.751ZM43.7204 41.3115V59.3529L62 52.5287V34.485L43.7204 41.3115Z" fill="#FF3833"/>
</svg>
