<svg width="164" height="163" viewBox="0 0 164 163" fill="none" xmlns="http://www.w3.org/2000/svg">
<path fill-rule="evenodd" clip-rule="evenodd" d="M100.493 0.0148418C111.61 -0.306886 121.978 4.6648 132.286 8.82242C142.829 13.0747 156.687 14.7789 161.977 24.812C167.649 35.5727 159.294 48.6576 159.69 60.806C159.978 69.6202 163.942 77.8014 163.992 86.62C164.045 96.0101 163.961 105.68 159.991 114.196C155.922 122.923 149.709 131.286 141.117 135.681C132.631 140.022 121.779 134.716 112.93 138.269C101.759 142.754 95.2368 155.329 83.6894 158.74C70.5093 162.633 54.7636 165.872 42.8995 158.953C31.3022 152.19 31.1369 135.32 24.0378 123.952C16.6975 112.197 1.50643 104.256 0.139128 90.4797C-1.22979 76.6869 7.731 63.2811 16.9897 52.937C25.4645 43.4686 40.148 42.6917 50.0508 34.7168C58.1834 28.1674 60.9076 16.559 69.5126 10.6392C78.5992 4.38806 89.4559 0.334287 100.493 0.0148418Z" fill="#EEF1F6"/>
<path fill-rule="evenodd" clip-rule="evenodd" d="M85.7612 90.843C85.7613 91.0682 85.7165 91.2913 85.6294 91.4994C85.5423 91.7075 85.4146 91.8965 85.2535 92.0557C85.0924 92.215 84.9012 92.3412 84.6908 92.4273C84.4804 92.5134 84.2548 92.5576 84.0271 92.5573H83.9745C83.5148 92.5573 83.074 92.3767 82.7489 92.0552C82.4239 91.7337 82.2413 91.2977 82.2413 90.843C82.2413 90.3884 82.4239 89.9523 82.7489 89.6308C83.074 89.3093 83.5148 89.1287 83.9745 89.1287H84.0271C84.2548 89.1285 84.4804 89.1727 84.6908 89.2587C84.9012 89.3448 85.0924 89.4711 85.2535 89.6303C85.4146 89.7895 85.5423 89.9786 85.6294 90.1867C85.7165 90.3948 85.7613 90.6178 85.7612 90.843ZM116.374 94.4254C116.681 94.4249 116.975 94.3041 117.192 94.0895C117.409 93.8749 117.531 93.5839 117.532 93.2803V87.2623H50.4698V93.2803C50.4698 93.5837 50.5915 93.8747 50.8083 94.0894C51.025 94.3041 51.3191 94.4249 51.6258 94.4254H116.374ZM87.7378 104.567H80.2638V97.8581H87.7378V104.567ZM51.6258 49.4294H116.374C116.681 49.4301 116.975 49.551 117.192 49.7658C117.409 49.9806 117.531 50.2717 117.532 50.5753V83.8296H50.4698V50.5753C50.4698 50.2718 50.5915 49.9807 50.8082 49.7659C51.025 49.5511 51.319 49.4301 51.6258 49.4294ZM116.374 46H51.6258C50.3994 46.0015 49.2237 46.484 48.3566 47.3417C47.4894 48.1994 47.0015 49.3623 47 50.5753V93.2803C47.0011 94.4932 47.4887 95.6561 48.3558 96.5138C49.223 97.3714 50.3987 97.8537 51.625 97.8548H76.7932V104.567H73.4221C72.9684 104.577 72.5366 104.762 72.2193 105.083C71.9019 105.404 71.7242 105.835 71.7242 106.284C71.7242 106.732 71.9019 107.163 72.2193 107.484C72.5366 107.805 72.9684 107.99 73.4221 108H94.5836C95.0373 107.99 95.4691 107.805 95.7865 107.484C96.1039 107.163 96.2816 106.732 96.2816 106.284C96.2816 105.835 96.1039 105.404 95.7865 105.083C95.4691 104.762 95.0373 104.577 94.5836 104.567H91.2125V97.8581H116.374C117.601 97.8572 118.778 97.3745 119.645 96.5162C120.512 95.6578 121 94.4939 121 93.2803V50.5753C120.998 49.3623 120.511 48.1994 119.643 47.3417C118.776 46.484 117.601 46.0015 116.374 46Z" fill="#FF3833"/>
</svg>
