<svg width="164" height="163" viewBox="0 0 164 163" fill="none" xmlns="http://www.w3.org/2000/svg">
<path fill-rule="evenodd" clip-rule="evenodd" d="M100.493 0.0148418C111.61 -0.306886 121.978 4.6648 132.286 8.82242C142.829 13.0747 156.687 14.7789 161.977 24.812C167.649 35.5727 159.294 48.6576 159.69 60.806C159.978 69.6202 163.942 77.8014 163.992 86.62C164.045 96.0101 163.961 105.68 159.991 114.196C155.922 122.923 149.709 131.286 141.117 135.681C132.631 140.022 121.779 134.716 112.93 138.269C101.759 142.754 95.2368 155.329 83.6894 158.74C70.5093 162.633 54.7636 165.872 42.8995 158.953C31.3022 152.19 31.1369 135.32 24.0378 123.952C16.6975 112.197 1.50643 104.256 0.139128 90.4797C-1.22979 76.6869 7.731 63.2811 16.9897 52.937C25.4645 43.4686 40.148 42.6917 50.0508 34.7168C58.1834 28.1674 60.9076 16.559 69.5126 10.6392C78.5992 4.38806 89.4559 0.334287 100.493 0.0148418Z" fill="#EEF1F6"/>
<path d="M113.445 74.802L101.785 64.802V51.302C101.785 50.9041 101.627 50.5226 101.346 50.2413C101.065 49.96 100.683 49.802 100.285 49.802H92.4754C92.0775 49.802 91.696 49.96 91.4147 50.2413C91.1334 50.5226 90.9754 50.9041 90.9754 51.302V55.522L77.9854 44.382C77.7104 44.136 77.3543 44 76.9854 44C76.6164 44 76.2604 44.136 75.9854 44.382L40.5254 74.802C40.2906 75.0026 40.1235 75.2709 40.0469 75.57C39.9703 75.8692 39.9879 76.1847 40.0973 76.4735C40.2067 76.7623 40.4025 77.0103 40.6581 77.1836C40.9137 77.357 41.2166 77.4472 41.5254 77.442H52.1854V105.522C52.1854 105.92 52.3434 106.301 52.6247 106.583C52.906 106.864 53.2875 107.022 53.6854 107.022H61.0454C61.4432 107.022 61.8247 106.864 62.106 106.583C62.3873 106.301 62.5454 105.92 62.5454 105.522V82.462H72.6754V105.522C72.6754 105.92 72.8334 106.301 73.1147 106.583C73.396 106.864 73.7775 107.022 74.1754 107.022H100.285C100.683 107.022 101.065 106.864 101.346 106.583C101.627 106.301 101.785 105.92 101.785 105.522V77.442H112.475C112.784 77.4472 113.087 77.357 113.343 77.1836C113.598 77.0103 113.794 76.7623 113.903 76.4735C114.013 76.1847 114.03 75.8692 113.954 75.57C113.877 75.2709 113.71 75.0026 113.475 74.802H113.445ZM93.9854 52.802H98.7854V62.232L93.9854 58.112V52.802ZM100.285 74.442C99.8875 74.442 99.506 74.6 99.2247 74.8813C98.9434 75.1626 98.7854 75.5441 98.7854 75.942V104.022H75.6754V80.962C75.6754 80.5641 75.5173 80.1826 75.236 79.9013C74.9547 79.62 74.5732 79.462 74.1754 79.462H61.0454C60.6475 79.462 60.266 79.62 59.9847 79.9013C59.7034 80.1826 59.5454 80.5641 59.5454 80.962V104.022H55.1854V75.942C55.1854 75.5441 55.0273 75.1626 54.746 74.8813C54.4647 74.6 54.0832 74.442 53.6854 74.442H45.5554L76.9854 47.522L108.415 74.442H100.285ZM80.5954 91.842H93.7254C94.1232 91.842 94.5047 91.6839 94.786 91.4026C95.0673 91.1213 95.2254 90.7398 95.2254 90.342V80.962C95.2254 80.5641 95.0673 80.1826 94.786 79.9013C94.5047 79.62 94.1232 79.462 93.7254 79.462H80.5954C80.1975 79.462 79.816 79.62 79.5347 79.9013C79.2534 80.1826 79.0954 80.5641 79.0954 80.962V90.342C79.0954 90.7398 79.2534 91.1213 79.5347 91.4026C79.816 91.6839 80.1975 91.842 80.5954 91.842ZM82.0954 82.472H92.2254V88.852H82.0954V82.472Z" fill="#FF3833"/>
</svg>
