<svg width="30" height="30" viewBox="0 0 30 30" fill="none" xmlns="http://www.w3.org/2000/svg">
<path d="M15 30C23.2843 30 30 23.2843 30 15C30 6.71573 23.2843 0 15 0C6.71573 0 0 6.71573 0 15C0 23.2843 6.71573 30 15 30Z" fill="#222532"/>
<path d="M11.969 23.64C19.2957 23.64 23.3024 17.5711 23.3024 12.3066C23.3024 12.1333 23.2979 11.9622 23.2913 11.7911C24.069 11.2288 24.7446 10.5266 25.2779 9.72885C24.5646 10.0466 23.7957 10.26 22.9913 10.3555C23.8135 9.86218 24.4446 9.08218 24.7424 8.15329C23.9735 8.60885 23.1201 8.94218 22.2135 9.11996C21.4868 8.34663 20.4513 7.86218 19.3068 7.86218C17.1068 7.86218 15.3224 9.64663 15.3224 11.8444C15.3224 12.1577 15.3579 12.46 15.4268 12.7533C12.1157 12.5866 9.18016 11.0022 7.21794 8.59107C6.87571 9.17996 6.67794 9.8644 6.67794 10.5933C6.67794 11.9755 7.38016 13.1955 8.45127 13.9088C7.79793 13.8888 7.1846 13.7088 6.64682 13.4111C6.64682 13.4266 6.64682 13.4444 6.64682 13.4622C6.64682 15.3911 8.02016 17.0022 9.84238 17.3666C9.50682 17.4577 9.15571 17.5066 8.79348 17.5066C8.53793 17.5066 8.28682 17.4822 8.0446 17.4355C8.55126 19.0177 10.0224 20.1688 11.7646 20.2022C10.4001 21.2711 8.6846 21.9066 6.81794 21.9066C6.49572 21.9066 6.18015 21.8888 5.86682 21.8511C7.62904 22.98 9.72238 23.64 11.9713 23.64" fill="white"/>
</svg>
