<svg width="164" height="163" viewBox="0 0 164 163" fill="none" xmlns="http://www.w3.org/2000/svg">
<path fill-rule="evenodd" clip-rule="evenodd" d="M100.493 0.0148418C111.61 -0.306886 121.978 4.6648 132.286 8.82242C142.829 13.0747 156.687 14.7789 161.977 24.812C167.649 35.5727 159.294 48.6576 159.69 60.806C159.978 69.6202 163.942 77.8014 163.992 86.62C164.045 96.0101 163.961 105.68 159.991 114.196C155.922 122.923 149.709 131.286 141.117 135.681C132.631 140.022 121.779 134.716 112.93 138.269C101.759 142.754 95.2368 155.329 83.6894 158.74C70.5093 162.633 54.7636 165.872 42.8995 158.953C31.3022 152.19 31.1369 135.32 24.0378 123.952C16.6975 112.197 1.50643 104.256 0.139128 90.4797C-1.22979 76.6869 7.731 63.2811 16.9897 52.937C25.4645 43.4686 40.148 42.6917 50.0508 34.7168C58.1834 28.1674 60.9076 16.559 69.5126 10.6392C78.5992 4.38806 89.4559 0.334287 100.493 0.0148418Z" fill="#EEF1F6"/>
<path fill-rule="evenodd" clip-rule="evenodd" d="M53.6317 101.69H52.1379C49.8524 101.69 48 99.8375 48 97.552V90.6554C48 88.3699 49.8524 86.5175 52.1379 86.5175H103.172V68.5865C103.172 66.301 105.025 64.4485 107.31 64.4485H114.2C116.375 64.4485 118.423 65.4747 119.725 67.2182L127.178 77.1947C127.691 77.883 127.978 78.7134 127.999 79.5685C127.999 79.5865 128 79.603 128 79.621V97.552C128 99.8375 126.148 101.69 123.862 101.69H122.368C121.71 105.602 118.305 108.586 114.207 108.586C110.109 108.586 106.703 105.602 106.045 101.69H83.7476C83.0896 105.602 79.6841 108.586 75.5862 108.586C72.709 108.586 70.1724 107.115 68.6896 104.884C67.2069 107.115 64.6703 108.586 61.7931 108.586C57.6952 108.586 54.2897 105.602 53.6317 101.69ZM125.241 89.2761H52.1379C51.3766 89.2761 50.7586 89.8941 50.7586 90.6554V97.552C50.7586 98.3134 51.3766 98.9313 52.1379 98.9313H53.6317C54.2897 95.0196 57.6952 92.0347 61.7931 92.0347C64.6703 92.0347 67.2069 93.5065 68.6896 95.7368C70.1724 93.5065 72.709 92.0347 75.5862 92.0347C79.6841 92.0347 83.0896 95.0196 83.7476 98.9313H106.045C106.703 95.0196 110.109 92.0347 114.207 92.0347C118.305 92.0347 121.71 95.0196 122.368 98.9313H123.862C124.623 98.9313 125.241 98.3134 125.241 97.552V89.2761ZM124.516 78.2416L120.394 72.7244H114.207C113.445 72.7244 112.828 73.3423 112.828 74.1037V76.8623C112.828 77.6237 113.445 78.2416 114.207 78.2416H124.516ZM118.335 69.9658L117.516 68.8692C116.734 67.8237 115.505 67.2072 114.2 67.2072H107.31C106.549 67.2072 105.931 67.8251 105.931 68.5865V86.5175H125.241V81.0003H114.207C111.921 81.0003 110.069 79.1478 110.069 76.8623V74.1037C110.069 71.8182 111.921 69.9658 114.207 69.9658H118.335ZM108.69 100.311C108.69 103.356 111.161 105.828 114.207 105.828C117.252 105.828 119.724 103.356 119.724 100.311C119.724 97.2651 117.252 94.7934 114.207 94.7934C111.161 94.7934 108.69 97.2651 108.69 100.311ZM70.069 100.311C70.069 103.356 72.5407 105.828 75.5862 105.828C78.6317 105.828 81.1034 103.356 81.1034 100.311C81.1034 97.2651 78.6317 94.7934 75.5862 94.7934C72.5407 94.7934 70.069 97.2651 70.069 100.311ZM56.2759 100.311C56.2759 103.356 58.7476 105.828 61.7931 105.828C64.8386 105.828 67.3103 103.356 67.3103 100.311C67.3103 97.2651 64.8386 94.7934 61.7931 94.7934C58.7476 94.7934 56.2759 97.2651 56.2759 100.311ZM75.5862 97.552C77.109 97.552 78.3448 98.7878 78.3448 100.311C78.3448 101.833 77.109 103.069 75.5862 103.069C74.0634 103.069 72.8276 101.833 72.8276 100.311C72.8276 98.7878 74.0634 97.552 75.5862 97.552ZM61.7931 97.552C63.3159 97.552 64.5517 98.7878 64.5517 100.311C64.5517 101.833 63.3159 103.069 61.7931 103.069C60.2703 103.069 59.0345 101.833 59.0345 100.311C59.0345 98.7878 60.2703 97.552 61.7931 97.552ZM114.207 97.552C115.73 97.552 116.965 98.7878 116.965 100.311C116.965 101.833 115.73 103.069 114.207 103.069C112.684 103.069 111.448 101.833 111.448 100.311C111.448 98.7878 112.684 97.552 114.207 97.552ZM100.414 57.552V79.621C100.414 81.9065 98.5614 83.7589 96.2758 83.7589H52.1379C49.8524 83.7589 48 81.9065 48 79.621V57.552C48 55.2665 49.8524 53.4141 52.1379 53.4141H96.2758C98.5614 53.4141 100.414 55.2665 100.414 57.552ZM97.6552 57.552C97.6552 56.7906 97.0372 56.1727 96.2758 56.1727H52.1379C51.3766 56.1727 50.7586 56.7906 50.7586 57.552V79.621C50.7586 80.3823 51.3766 81.0003 52.1379 81.0003H96.2758C97.0372 81.0003 97.6552 80.3823 97.6552 79.621V57.552ZM67.3103 60.4348C67.3103 59.6734 67.9283 59.0554 68.6896 59.0554C69.451 59.0554 70.069 59.6734 70.069 60.4348V75.6072C70.069 76.3685 69.451 76.9865 68.6896 76.9865C67.9283 76.9865 67.3103 76.3685 67.3103 75.6072V60.4348ZM89.3793 60.4348C89.3793 59.6734 89.9972 59.0554 90.7586 59.0554C91.52 59.0554 92.1379 59.6734 92.1379 60.4348V75.6072C92.1379 76.3685 91.52 76.9865 90.7586 76.9865C89.9972 76.9865 89.3793 76.3685 89.3793 75.6072V60.4348ZM56.2759 60.4348C56.2759 59.6734 56.8938 59.0554 57.6552 59.0554C58.4165 59.0554 59.0345 59.6734 59.0345 60.4348V75.6072C59.0345 76.3685 58.4165 76.9865 57.6552 76.9865C56.8938 76.9865 56.2759 76.3685 56.2759 75.6072V60.4348ZM78.3448 60.4348C78.3448 59.6734 78.9627 59.0554 79.7241 59.0554C80.4855 59.0554 81.1034 59.6734 81.1034 60.4348V75.6072C81.1034 76.3685 80.4855 76.9865 79.7241 76.9865C78.9627 76.9865 78.3448 76.3685 78.3448 75.6072V60.4348Z" fill="#FF3833"/>
</svg>
